<svg xmlns="http://www.w3.org/2000/svg" xmlns:xlink="http://www.w3.org/1999/xlink" width="188" zoomAndPan="magnify" viewBox="0 0 141 141.000003" height="188" preserveAspectRatio="xMidYMid meet" version="1.0"><defs><g/><clipPath id="42b60c836c"><path d="M 0.496094 0 L 140.503906 0 L 140.503906 140.007812 L 0.496094 140.007812 Z M 0.496094 0 " clip-rule="nonzero"/></clipPath></defs><g clip-path="url(#42b60c836c)"><path fill="#ffffff" d="M 0.496094 0 L 140.503906 0 L 140.503906 140.007812 L 0.496094 140.007812 Z M 0.496094 0 " fill-opacity="1" fill-rule="nonzero"/><path fill="#ffffff" d="M 0.496094 0 L 140.503906 0 L 140.503906 140.007812 L 0.496094 140.007812 Z M 0.496094 0 " fill-opacity="1" fill-rule="nonzero"/></g><g fill="#000000" fill-opacity="1"><g transform="translate(35.191816, 77.07835)"><g><path d="M 8.125 0.21875 C 6.757812 0.21875 5.550781 -0.0664062 4.5 -0.640625 C 3.457031 -1.210938 2.640625 -2.066406 2.046875 -3.203125 C 1.460938 -4.347656 1.171875 -5.757812 1.171875 -7.4375 C 1.171875 -9.113281 1.460938 -10.523438 2.046875 -11.671875 C 2.640625 -12.816406 3.457031 -13.671875 4.5 -14.234375 C 5.550781 -14.804688 6.757812 -15.09375 8.125 -15.09375 C 9.5625 -15.09375 10.78125 -14.8125 11.78125 -14.25 C 12.78125 -13.695312 13.492188 -12.84375 13.921875 -11.6875 L 11.78125 -10.375 L 11.515625 -10.390625 C 11.203125 -11.160156 10.769531 -11.710938 10.21875 -12.046875 C 9.675781 -12.390625 8.976562 -12.5625 8.125 -12.5625 C 6.894531 -12.5625 5.929688 -12.148438 5.234375 -11.328125 C 4.546875 -10.515625 4.203125 -9.21875 4.203125 -7.4375 C 4.203125 -5.664062 4.546875 -4.367188 5.234375 -3.546875 C 5.929688 -2.734375 6.894531 -2.328125 8.125 -2.328125 C 10.0625 -2.328125 11.25 -3.269531 11.6875 -5.15625 L 11.9375 -5.15625 L 14.109375 -4.015625 C 13.703125 -2.609375 13.003906 -1.550781 12.015625 -0.84375 C 11.035156 -0.132812 9.738281 0.21875 8.125 0.21875 Z M 8.125 0.21875 "/></g></g></g><g fill="#000000" fill-opacity="1"><g transform="translate(49.784219, 77.07835)"><g><path d="M 6.53125 0.21875 C 5.425781 0.21875 4.457031 -0.00390625 3.625 -0.453125 C 2.789062 -0.910156 2.144531 -1.570312 1.6875 -2.4375 C 1.226562 -3.3125 1 -4.367188 1 -5.609375 C 1 -6.835938 1.226562 -7.890625 1.6875 -8.765625 C 2.144531 -9.648438 2.789062 -10.316406 3.625 -10.765625 C 4.457031 -11.210938 5.425781 -11.4375 6.53125 -11.4375 C 7.625 -11.4375 8.585938 -11.210938 9.421875 -10.765625 C 10.253906 -10.316406 10.898438 -9.648438 11.359375 -8.765625 C 11.816406 -7.890625 12.046875 -6.835938 12.046875 -5.609375 C 12.046875 -4.367188 11.816406 -3.3125 11.359375 -2.4375 C 10.898438 -1.570312 10.253906 -0.910156 9.421875 -0.453125 C 8.585938 -0.00390625 7.625 0.21875 6.53125 0.21875 Z M 6.53125 -2.171875 C 8.269531 -2.171875 9.140625 -3.316406 9.140625 -5.609375 C 9.140625 -6.796875 8.914062 -7.664062 8.46875 -8.21875 C 8.019531 -8.769531 7.375 -9.046875 6.53125 -9.046875 C 4.78125 -9.046875 3.90625 -7.898438 3.90625 -5.609375 C 3.90625 -3.316406 4.78125 -2.171875 6.53125 -2.171875 Z M 6.53125 -2.171875 "/></g></g></g><g fill="#000000" fill-opacity="1"><g transform="translate(62.829869, 77.07835)"><g><path d="M 1.625 0 L 1.625 -11.21875 L 4.359375 -11.21875 L 4.359375 -9.5625 L 4.5625 -9.515625 C 4.84375 -10.140625 5.203125 -10.597656 5.640625 -10.890625 C 6.078125 -11.179688 6.613281 -11.328125 7.25 -11.328125 C 7.882812 -11.328125 8.367188 -11.21875 8.703125 -11 L 8.21875 -8.5625 L 8.015625 -8.53125 C 7.828125 -8.601562 7.644531 -8.65625 7.46875 -8.6875 C 7.300781 -8.726562 7.097656 -8.75 6.859375 -8.75 C 6.066406 -8.75 5.460938 -8.46875 5.046875 -7.90625 C 4.640625 -7.351562 4.4375 -6.46875 4.4375 -5.25 L 4.4375 0 Z M 1.625 0 "/></g></g></g><g fill="#000000" fill-opacity="1"><g transform="translate(71.632126, 77.07835)"><g><path d="M 1.625 0 L 1.625 -11.21875 L 4.328125 -11.21875 L 4.328125 -9.578125 L 4.546875 -9.53125 C 5.242188 -10.800781 6.375 -11.4375 7.9375 -11.4375 C 9.226562 -11.4375 10.175781 -11.082031 10.78125 -10.375 C 11.394531 -9.675781 11.703125 -8.648438 11.703125 -7.296875 L 11.703125 0 L 8.890625 0 L 8.890625 -6.953125 C 8.890625 -7.703125 8.738281 -8.238281 8.4375 -8.5625 C 8.132812 -8.894531 7.65625 -9.0625 7 -9.0625 C 6.195312 -9.0625 5.566406 -8.796875 5.109375 -8.265625 C 4.660156 -7.742188 4.4375 -6.925781 4.4375 -5.8125 L 4.4375 0 Z M 1.625 0 "/></g></g></g><g fill="#000000" fill-opacity="1"><g transform="translate(84.779536, 77.07835)"><g><path d="M 11.09375 -4.984375 L 3.875 -4.984375 C 3.957031 -4.003906 4.234375 -3.289062 4.703125 -2.84375 C 5.179688 -2.394531 5.832031 -2.171875 6.65625 -2.171875 C 7.300781 -2.171875 7.820312 -2.289062 8.21875 -2.53125 C 8.625 -2.78125 8.945312 -3.148438 9.1875 -3.640625 L 9.40625 -3.640625 L 11.28125 -2.4375 C 10.914062 -1.644531 10.363281 -1.003906 9.625 -0.515625 C 8.882812 -0.0234375 7.894531 0.21875 6.65625 0.21875 C 5.5 0.21875 4.492188 0 3.640625 -0.4375 C 2.796875 -0.882812 2.144531 -1.539062 1.6875 -2.40625 C 1.226562 -3.28125 1 -4.347656 1 -5.609375 C 1 -6.878906 1.238281 -7.953125 1.71875 -8.828125 C 2.207031 -9.703125 2.863281 -10.351562 3.6875 -10.78125 C 4.507812 -11.21875 5.429688 -11.4375 6.453125 -11.4375 C 8.035156 -11.4375 9.25 -11.015625 10.09375 -10.171875 C 10.945312 -9.335938 11.375 -8.101562 11.375 -6.46875 C 11.375 -5.882812 11.351562 -5.425781 11.3125 -5.09375 Z M 8.671875 -6.796875 C 8.640625 -7.648438 8.4375 -8.269531 8.0625 -8.65625 C 7.695312 -9.050781 7.160156 -9.25 6.453125 -9.25 C 5.023438 -9.25 4.1875 -8.429688 3.9375 -6.796875 Z M 8.671875 -6.796875 "/></g></g></g><g fill="#000000" fill-opacity="1"><g transform="translate(96.980582, 77.07835)"><g><path d="M 1.625 0 L 1.625 -11.21875 L 4.359375 -11.21875 L 4.359375 -9.5625 L 4.5625 -9.515625 C 4.84375 -10.140625 5.203125 -10.597656 5.640625 -10.890625 C 6.078125 -11.179688 6.613281 -11.328125 7.25 -11.328125 C 7.882812 -11.328125 8.367188 -11.21875 8.703125 -11 L 8.21875 -8.5625 L 8.015625 -8.53125 C 7.828125 -8.601562 7.644531 -8.65625 7.46875 -8.6875 C 7.300781 -8.726562 7.097656 -8.75 6.859375 -8.75 C 6.066406 -8.75 5.460938 -8.46875 5.046875 -7.90625 C 4.640625 -7.351562 4.4375 -6.46875 4.4375 -5.25 L 4.4375 0 Z M 1.625 0 "/></g></g></g></svg>