<svg xmlns="http://www.w3.org/2000/svg" xmlns:xlink="http://www.w3.org/1999/xlink" width="188" zoomAndPan="magnify" viewBox="0 0 141 141.000003" height="188" preserveAspectRatio="xMidYMid meet" version="1.0"><defs><g/><clipPath id="18fdfc875d"><path d="M 0.496094 0 L 140.503906 0 L 140.503906 140.007812 L 0.496094 140.007812 Z M 0.496094 0 " clip-rule="nonzero"/></clipPath></defs><g clip-path="url(#18fdfc875d)"><path fill="#ffffff" d="M 0.496094 0 L 140.503906 0 L 140.503906 140.007812 L 0.496094 140.007812 Z M 0.496094 0 " fill-opacity="1" fill-rule="nonzero"/><path fill="#ffffff" d="M 0.496094 0 L 140.503906 0 L 140.503906 140.007812 L 0.496094 140.007812 Z M 0.496094 0 " fill-opacity="1" fill-rule="nonzero"/></g><g fill="#000000" fill-opacity="1"><g transform="translate(35.633992, 77.07835)"><g><path d="M 8.21875 0.21875 C 6.914062 0.21875 5.753906 -0.078125 4.734375 -0.671875 C 3.722656 -1.273438 2.925781 -2.148438 2.34375 -3.296875 C 1.769531 -4.453125 1.484375 -5.832031 1.484375 -7.4375 C 1.484375 -9.050781 1.769531 -10.429688 2.34375 -11.578125 C 2.925781 -12.722656 3.722656 -13.59375 4.734375 -14.1875 C 5.753906 -14.789062 6.914062 -15.09375 8.21875 -15.09375 C 9.613281 -15.09375 10.769531 -14.828125 11.6875 -14.296875 C 12.613281 -13.773438 13.28125 -12.984375 13.6875 -11.921875 L 12.5625 -11.1875 L 12.3125 -11.1875 C 11.90625 -12.03125 11.375 -12.628906 10.71875 -12.984375 C 10.070312 -13.347656 9.238281 -13.53125 8.21875 -13.53125 C 7.28125 -13.53125 6.445312 -13.320312 5.71875 -12.90625 C 5 -12.488281 4.425781 -11.828125 4 -10.921875 C 3.570312 -10.015625 3.359375 -8.851562 3.359375 -7.4375 C 3.359375 -6.03125 3.570312 -4.875 4 -3.96875 C 4.425781 -3.0625 5 -2.398438 5.71875 -1.984375 C 6.445312 -1.566406 7.28125 -1.359375 8.21875 -1.359375 C 9.300781 -1.359375 10.179688 -1.597656 10.859375 -2.078125 C 11.546875 -2.566406 12.054688 -3.359375 12.390625 -4.453125 L 12.65625 -4.453125 L 13.828125 -3.875 C 13.472656 -2.550781 12.816406 -1.535156 11.859375 -0.828125 C 10.910156 -0.128906 9.695312 0.21875 8.21875 0.21875 Z M 8.21875 0.21875 "/></g></g></g><g fill="#000000" fill-opacity="1"><g transform="translate(50.226395, 77.07835)"><g><path d="M 6.4375 0.21875 C 5.382812 0.21875 4.460938 -0.00390625 3.671875 -0.453125 C 2.890625 -0.898438 2.285156 -1.5625 1.859375 -2.4375 C 1.441406 -3.3125 1.234375 -4.367188 1.234375 -5.609375 C 1.234375 -6.847656 1.441406 -7.90625 1.859375 -8.78125 C 2.285156 -9.65625 2.890625 -10.316406 3.671875 -10.765625 C 4.460938 -11.210938 5.382812 -11.4375 6.4375 -11.4375 C 7.5 -11.4375 8.421875 -11.210938 9.203125 -10.765625 C 9.984375 -10.316406 10.585938 -9.65625 11.015625 -8.78125 C 11.441406 -7.90625 11.65625 -6.847656 11.65625 -5.609375 C 11.65625 -4.367188 11.441406 -3.3125 11.015625 -2.4375 C 10.585938 -1.5625 9.984375 -0.898438 9.203125 -0.453125 C 8.421875 -0.00390625 7.5 0.21875 6.4375 0.21875 Z M 6.4375 -1.265625 C 7.5625 -1.265625 8.421875 -1.617188 9.015625 -2.328125 C 9.609375 -3.035156 9.90625 -4.128906 9.90625 -5.609375 C 9.90625 -7.097656 9.609375 -8.191406 9.015625 -8.890625 C 8.421875 -9.597656 7.5625 -9.953125 6.4375 -9.953125 C 5.320312 -9.953125 4.460938 -9.597656 3.859375 -8.890625 C 3.265625 -8.179688 2.96875 -7.085938 2.96875 -5.609375 C 2.96875 -4.128906 3.265625 -3.035156 3.859375 -2.328125 C 4.460938 -1.617188 5.320312 -1.265625 6.4375 -1.265625 Z M 6.4375 -1.265625 "/></g></g></g><g fill="#000000" fill-opacity="1"><g transform="translate(63.109229, 77.07835)"><g><path d="M 1.953125 0 L 1.953125 -11.21875 L 3.53125 -11.21875 L 3.53125 -9.46875 L 3.75 -9.421875 C 4.269531 -10.691406 5.253906 -11.328125 6.703125 -11.328125 C 7.460938 -11.328125 8.035156 -11.1875 8.421875 -10.90625 L 7.984375 -9.5 L 7.78125 -9.46875 C 7.363281 -9.675781 6.90625 -9.78125 6.40625 -9.78125 C 5.507812 -9.78125 4.816406 -9.441406 4.328125 -8.765625 C 3.847656 -8.097656 3.609375 -7.007812 3.609375 -5.5 L 3.609375 0 Z M 1.953125 0 "/></g></g></g><g fill="#000000" fill-opacity="1"><g transform="translate(71.779192, 77.07835)"><g><path d="M 1.953125 0 L 1.953125 -11.21875 L 3.53125 -11.21875 L 3.53125 -9.46875 L 3.75 -9.421875 C 4.125 -10.078125 4.597656 -10.578125 5.171875 -10.921875 C 5.753906 -11.265625 6.460938 -11.4375 7.296875 -11.4375 C 8.648438 -11.4375 9.628906 -11.09375 10.234375 -10.40625 C 10.835938 -9.71875 11.140625 -8.65625 11.140625 -7.21875 L 11.140625 0 L 9.484375 0 L 9.484375 -7.1875 C 9.484375 -7.863281 9.394531 -8.40625 9.21875 -8.8125 C 9.050781 -9.226562 8.785156 -9.53125 8.421875 -9.71875 C 8.054688 -9.90625 7.578125 -10 6.984375 -10 C 5.972656 -10 5.15625 -9.660156 4.53125 -8.984375 C 3.914062 -8.316406 3.609375 -7.242188 3.609375 -5.765625 L 3.609375 0 Z M 1.953125 0 "/></g></g></g><g fill="#000000" fill-opacity="1"><g transform="translate(84.70273, 77.07835)"><g><path d="M 10.703125 -5.234375 L 2.984375 -5.234375 C 3.023438 -3.867188 3.347656 -2.863281 3.953125 -2.21875 C 4.566406 -1.582031 5.40625 -1.265625 6.46875 -1.265625 C 7.257812 -1.265625 7.898438 -1.40625 8.390625 -1.6875 C 8.878906 -1.976562 9.265625 -2.429688 9.546875 -3.046875 L 9.765625 -3.046875 L 10.84375 -2.40625 C 10.507812 -1.59375 9.984375 -0.953125 9.265625 -0.484375 C 8.554688 -0.015625 7.625 0.21875 6.46875 0.21875 C 5.375 0.21875 4.4375 0.00390625 3.65625 -0.421875 C 2.882812 -0.847656 2.285156 -1.492188 1.859375 -2.359375 C 1.441406 -3.234375 1.234375 -4.316406 1.234375 -5.609375 C 1.234375 -6.878906 1.453125 -7.953125 1.890625 -8.828125 C 2.335938 -9.703125 2.945312 -10.351562 3.71875 -10.78125 C 4.488281 -11.21875 5.367188 -11.4375 6.359375 -11.4375 C 7.796875 -11.4375 8.914062 -11.03125 9.71875 -10.21875 C 10.53125 -9.40625 10.941406 -8.203125 10.953125 -6.609375 C 10.953125 -5.984375 10.9375 -5.566406 10.90625 -5.359375 Z M 9.3125 -6.609375 C 9.28125 -7.804688 9.015625 -8.675781 8.515625 -9.21875 C 8.015625 -9.757812 7.296875 -10.03125 6.359375 -10.03125 C 5.378906 -10.03125 4.609375 -9.753906 4.046875 -9.203125 C 3.484375 -8.660156 3.140625 -7.796875 3.015625 -6.609375 Z M 9.3125 -6.609375 "/></g></g></g><g fill="#000000" fill-opacity="1"><g transform="translate(96.669722, 77.07835)"><g><path d="M 1.953125 0 L 1.953125 -11.21875 L 3.53125 -11.21875 L 3.53125 -9.46875 L 3.75 -9.421875 C 4.269531 -10.691406 5.253906 -11.328125 6.703125 -11.328125 C 7.460938 -11.328125 8.035156 -11.1875 8.421875 -10.90625 L 7.984375 -9.5 L 7.78125 -9.46875 C 7.363281 -9.675781 6.90625 -9.78125 6.40625 -9.78125 C 5.507812 -9.78125 4.816406 -9.441406 4.328125 -8.765625 C 3.847656 -8.097656 3.609375 -7.007812 3.609375 -5.5 L 3.609375 0 Z M 1.953125 0 "/></g></g></g></svg>