<svg xmlns="http://www.w3.org/2000/svg" xmlns:xlink="http://www.w3.org/1999/xlink" width="188" zoomAndPan="magnify" viewBox="0 0 141 141.000003" height="188" preserveAspectRatio="xMidYMid meet" version="1.0"><defs><g/><clipPath id="00db2aa6d0"><path d="M 0.496094 0 L 140.503906 0 L 140.503906 140.007812 L 0.496094 140.007812 Z M 0.496094 0 " clip-rule="nonzero"/></clipPath></defs><g clip-path="url(#00db2aa6d0)"><path fill="#ffffff" d="M 0.496094 0 L 140.503906 0 L 140.503906 140.007812 L 0.496094 140.007812 Z M 0.496094 0 " fill-opacity="1" fill-rule="nonzero"/><path fill="#ffffff" d="M 0.496094 0 L 140.503906 0 L 140.503906 140.007812 L 0.496094 140.007812 Z M 0.496094 0 " fill-opacity="1" fill-rule="nonzero"/></g><g fill="#000000" fill-opacity="1"><g transform="translate(25.110968, 79.684864)"><g><path d="M 10.453125 0.28125 C 8.691406 0.28125 7.140625 -0.0820312 5.796875 -0.8125 C 4.453125 -1.550781 3.398438 -2.65625 2.640625 -4.125 C 1.878906 -5.59375 1.5 -7.40625 1.5 -9.5625 C 1.5 -11.71875 1.878906 -13.53125 2.640625 -15 C 3.398438 -16.46875 4.453125 -17.566406 5.796875 -18.296875 C 7.140625 -19.035156 8.691406 -19.40625 10.453125 -19.40625 C 12.296875 -19.40625 13.859375 -19.046875 15.140625 -18.328125 C 16.429688 -17.609375 17.351562 -16.507812 17.90625 -15.03125 L 15.140625 -13.34375 L 14.8125 -13.359375 C 14.40625 -14.347656 13.847656 -15.054688 13.140625 -15.484375 C 12.441406 -15.921875 11.546875 -16.140625 10.453125 -16.140625 C 8.867188 -16.140625 7.628906 -15.613281 6.734375 -14.5625 C 5.847656 -13.519531 5.40625 -11.851562 5.40625 -9.5625 C 5.40625 -7.289062 5.847656 -5.628906 6.734375 -4.578125 C 7.628906 -3.523438 8.867188 -3 10.453125 -3 C 12.941406 -3 14.460938 -4.207031 15.015625 -6.625 L 15.34375 -6.625 L 18.140625 -5.171875 C 17.609375 -3.359375 16.710938 -1.992188 15.453125 -1.078125 C 14.191406 -0.171875 12.523438 0.28125 10.453125 0.28125 Z M 10.453125 0.28125 "/></g></g></g><g fill="#000000" fill-opacity="1"><g transform="translate(43.874958, 79.684864)"><g><path d="M 8.390625 0.28125 C 6.972656 0.28125 5.726562 -0.0078125 4.65625 -0.59375 C 3.59375 -1.175781 2.765625 -2.023438 2.171875 -3.140625 C 1.585938 -4.265625 1.296875 -5.617188 1.296875 -7.203125 C 1.296875 -8.796875 1.585938 -10.15625 2.171875 -11.28125 C 2.765625 -12.40625 3.59375 -13.253906 4.65625 -13.828125 C 5.726562 -14.410156 6.972656 -14.703125 8.390625 -14.703125 C 9.796875 -14.703125 11.035156 -14.410156 12.109375 -13.828125 C 13.179688 -13.253906 14.007812 -12.40625 14.59375 -11.28125 C 15.1875 -10.15625 15.484375 -8.796875 15.484375 -7.203125 C 15.484375 -5.617188 15.1875 -4.265625 14.59375 -3.140625 C 14.007812 -2.023438 13.179688 -1.175781 12.109375 -0.59375 C 11.035156 -0.0078125 9.796875 0.28125 8.390625 0.28125 Z M 8.390625 -2.796875 C 10.628906 -2.796875 11.75 -4.265625 11.75 -7.203125 C 11.75 -8.734375 11.457031 -9.851562 10.875 -10.5625 C 10.300781 -11.269531 9.472656 -11.625 8.390625 -11.625 C 6.148438 -11.625 5.03125 -10.148438 5.03125 -7.203125 C 5.03125 -4.265625 6.148438 -2.796875 8.390625 -2.796875 Z M 8.390625 -2.796875 "/></g></g></g><g fill="#000000" fill-opacity="1"><g transform="translate(60.650017, 79.684864)"><g><path d="M 2.078125 0 L 2.078125 -14.4375 L 5.59375 -14.4375 L 5.59375 -12.28125 L 5.875 -12.234375 C 6.21875 -13.035156 6.671875 -13.625 7.234375 -14 C 7.804688 -14.375 8.5 -14.5625 9.3125 -14.5625 C 10.132812 -14.5625 10.757812 -14.421875 11.1875 -14.140625 L 10.578125 -11.015625 L 10.296875 -10.96875 C 10.054688 -11.0625 9.828125 -11.128906 9.609375 -11.171875 C 9.398438 -11.210938 9.132812 -11.234375 8.8125 -11.234375 C 7.800781 -11.234375 7.03125 -10.878906 6.5 -10.171875 C 5.96875 -9.460938 5.703125 -8.320312 5.703125 -6.75 L 5.703125 0 Z M 2.078125 0 "/></g></g></g><g fill="#000000" fill-opacity="1"><g transform="translate(71.968608, 79.684864)"><g><path d="M 2.078125 0 L 2.078125 -14.4375 L 5.5625 -14.4375 L 5.5625 -12.3125 L 5.828125 -12.25 C 6.734375 -13.882812 8.191406 -14.703125 10.203125 -14.703125 C 11.867188 -14.703125 13.09375 -14.25 13.875 -13.34375 C 14.65625 -12.4375 15.046875 -11.113281 15.046875 -9.375 L 15.046875 0 L 11.421875 0 L 11.421875 -8.9375 C 11.421875 -9.894531 11.226562 -10.582031 10.84375 -11 C 10.457031 -11.425781 9.84375 -11.640625 9 -11.640625 C 7.957031 -11.640625 7.144531 -11.300781 6.5625 -10.625 C 5.988281 -9.957031 5.703125 -8.90625 5.703125 -7.46875 L 5.703125 0 Z M 2.078125 0 "/></g></g></g><g fill="#000000" fill-opacity="1"><g transform="translate(88.874517, 79.684864)"><g><path d="M 14.265625 -6.390625 L 4.984375 -6.390625 C 5.085938 -5.140625 5.441406 -4.226562 6.046875 -3.65625 C 6.660156 -3.082031 7.5 -2.796875 8.5625 -2.796875 C 9.382812 -2.796875 10.050781 -2.953125 10.5625 -3.265625 C 11.082031 -3.578125 11.5 -4.046875 11.8125 -4.671875 L 12.09375 -4.671875 L 14.5 -3.125 C 14.03125 -2.113281 13.316406 -1.289062 12.359375 -0.65625 C 11.410156 -0.03125 10.144531 0.28125 8.5625 0.28125 C 7.0625 0.28125 5.769531 0 4.6875 -0.5625 C 3.601562 -1.132812 2.765625 -1.976562 2.171875 -3.09375 C 1.585938 -4.21875 1.296875 -5.585938 1.296875 -7.203125 C 1.296875 -8.847656 1.601562 -10.234375 2.21875 -11.359375 C 2.84375 -12.484375 3.679688 -13.320312 4.734375 -13.875 C 5.785156 -14.425781 6.972656 -14.703125 8.296875 -14.703125 C 10.335938 -14.703125 11.898438 -14.160156 12.984375 -13.078125 C 14.066406 -12.003906 14.609375 -10.421875 14.609375 -8.328125 C 14.609375 -7.566406 14.582031 -6.976562 14.53125 -6.5625 Z M 11.140625 -8.734375 C 11.109375 -9.835938 10.851562 -10.640625 10.375 -11.140625 C 9.90625 -11.640625 9.210938 -11.890625 8.296875 -11.890625 C 6.460938 -11.890625 5.382812 -10.835938 5.0625 -8.734375 Z M 11.140625 -8.734375 "/></g></g></g><g fill="#000000" fill-opacity="1"><g transform="translate(104.563521, 79.684864)"><g><path d="M 2.078125 0 L 2.078125 -14.4375 L 5.59375 -14.4375 L 5.59375 -12.28125 L 5.875 -12.234375 C 6.21875 -13.035156 6.671875 -13.625 7.234375 -14 C 7.804688 -14.375 8.5 -14.5625 9.3125 -14.5625 C 10.132812 -14.5625 10.757812 -14.421875 11.1875 -14.140625 L 10.578125 -11.015625 L 10.296875 -10.96875 C 10.054688 -11.0625 9.828125 -11.128906 9.609375 -11.171875 C 9.398438 -11.210938 9.132812 -11.234375 8.8125 -11.234375 C 7.800781 -11.234375 7.03125 -10.878906 6.5 -10.171875 C 5.96875 -9.460938 5.703125 -8.320312 5.703125 -6.75 L 5.703125 0 Z M 2.078125 0 "/></g></g></g></svg>