<svg xmlns="http://www.w3.org/2000/svg" xmlns:xlink="http://www.w3.org/1999/xlink" width="188" zoomAndPan="magnify" viewBox="0 0 141 141.000003" height="188" preserveAspectRatio="xMidYMid meet" version="1.0"><defs><g/><clipPath id="4f67cd5cf3"><path d="M 0.496094 0 L 140.503906 0 L 140.503906 140.007812 L 0.496094 140.007812 Z M 0.496094 0 " clip-rule="nonzero"/></clipPath></defs><g clip-path="url(#4f67cd5cf3)"><path fill="#ffffff" d="M 0.496094 0 L 140.503906 0 L 140.503906 140.007812 L 0.496094 140.007812 Z M 0.496094 0 " fill-opacity="1" fill-rule="nonzero"/><path fill="#ffffff" d="M 0.496094 0 L 140.503906 0 L 140.503906 140.007812 L 0.496094 140.007812 Z M 0.496094 0 " fill-opacity="1" fill-rule="nonzero"/></g><g fill="#000000" fill-opacity="1"><g transform="translate(19.719518, 79.684864)"><g><path d="M 10.453125 0.28125 C 8.691406 0.28125 7.140625 -0.0820312 5.796875 -0.8125 C 4.453125 -1.550781 3.398438 -2.65625 2.640625 -4.125 C 1.878906 -5.59375 1.5 -7.40625 1.5 -9.5625 C 1.5 -11.71875 1.878906 -13.53125 2.640625 -15 C 3.398438 -16.46875 4.453125 -17.566406 5.796875 -18.296875 C 7.140625 -19.035156 8.691406 -19.40625 10.453125 -19.40625 C 12.296875 -19.40625 13.859375 -19.046875 15.140625 -18.328125 C 16.429688 -17.609375 17.351562 -16.507812 17.90625 -15.03125 L 15.140625 -13.34375 L 14.8125 -13.359375 C 14.40625 -14.347656 13.847656 -15.054688 13.140625 -15.484375 C 12.441406 -15.921875 11.546875 -16.140625 10.453125 -16.140625 C 8.867188 -16.140625 7.628906 -15.613281 6.734375 -14.5625 C 5.847656 -13.519531 5.40625 -11.851562 5.40625 -9.5625 C 5.40625 -7.289062 5.847656 -5.628906 6.734375 -4.578125 C 7.628906 -3.523438 8.867188 -3 10.453125 -3 C 12.941406 -3 14.460938 -4.207031 15.015625 -6.625 L 15.34375 -6.625 L 18.140625 -5.171875 C 17.609375 -3.359375 16.710938 -1.992188 15.453125 -1.078125 C 14.191406 -0.171875 12.523438 0.28125 10.453125 0.28125 Z M 10.453125 0.28125 "/></g></g></g><g fill="#000000" fill-opacity="1"><g transform="translate(38.483508, 79.684864)"><g><path d="M 6.609375 0.28125 C 4.984375 0.28125 3.785156 -0.160156 3.015625 -1.046875 C 2.242188 -1.929688 1.859375 -3.207031 1.859375 -4.875 L 1.859375 -14.4375 L 5.484375 -14.4375 L 5.484375 -5.328125 C 5.484375 -4.441406 5.671875 -3.796875 6.046875 -3.390625 C 6.429688 -2.984375 7.019531 -2.78125 7.8125 -2.78125 C 8.8125 -2.78125 9.585938 -3.109375 10.140625 -3.765625 C 10.703125 -4.429688 10.984375 -5.46875 10.984375 -6.875 L 10.984375 -14.4375 L 14.609375 -14.4375 L 14.609375 0 L 11.140625 0 L 11.140625 -2.125 L 10.859375 -2.1875 C 10.398438 -1.351562 9.835938 -0.734375 9.171875 -0.328125 C 8.503906 0.078125 7.648438 0.28125 6.609375 0.28125 Z M 6.609375 0.28125 "/></g></g></g><g fill="#000000" fill-opacity="1"><g transform="translate(55.180057, 79.684864)"><g><path d="M 6.75 0.28125 C 5.757812 0.28125 4.851562 0.164062 4.03125 -0.0625 C 3.21875 -0.300781 2.519531 -0.625 1.9375 -1.03125 C 1.363281 -1.4375 0.9375 -1.898438 0.65625 -2.421875 L 2.671875 -4.59375 L 2.9375 -4.59375 C 3.414062 -3.945312 3.984375 -3.460938 4.640625 -3.140625 C 5.296875 -2.816406 6.007812 -2.65625 6.78125 -2.65625 C 7.488281 -2.65625 8.019531 -2.78125 8.375 -3.03125 C 8.726562 -3.289062 8.90625 -3.65625 8.90625 -4.125 C 8.90625 -4.488281 8.773438 -4.796875 8.515625 -5.046875 C 8.265625 -5.296875 7.851562 -5.488281 7.28125 -5.625 L 5.359375 -6.078125 C 3.929688 -6.421875 2.890625 -6.941406 2.234375 -7.640625 C 1.578125 -8.347656 1.25 -9.242188 1.25 -10.328125 C 1.25 -11.222656 1.472656 -12 1.921875 -12.65625 C 2.378906 -13.320312 3.023438 -13.828125 3.859375 -14.171875 C 4.691406 -14.523438 5.664062 -14.703125 6.78125 -14.703125 C 8.082031 -14.703125 9.160156 -14.515625 10.015625 -14.140625 C 10.867188 -13.765625 11.535156 -13.265625 12.015625 -12.640625 L 10.078125 -10.546875 L 9.8125 -10.546875 C 9.414062 -10.992188 8.960938 -11.320312 8.453125 -11.53125 C 7.953125 -11.75 7.394531 -11.859375 6.78125 -11.859375 C 5.34375 -11.859375 4.625 -11.410156 4.625 -10.515625 C 4.625 -10.140625 4.757812 -9.832031 5.03125 -9.59375 C 5.300781 -9.363281 5.769531 -9.175781 6.4375 -9.03125 L 8.21875 -8.640625 C 9.6875 -8.328125 10.753906 -7.820312 11.421875 -7.125 C 12.097656 -6.425781 12.4375 -5.492188 12.4375 -4.328125 C 12.4375 -3.410156 12.207031 -2.601562 11.75 -1.90625 C 11.300781 -1.207031 10.648438 -0.664062 9.796875 -0.28125 C 8.941406 0.09375 7.925781 0.28125 6.75 0.28125 Z M 6.75 0.28125 "/></g></g></g><g fill="#000000" fill-opacity="1"><g transform="translate(68.487578, 79.684864)"><g><path d="M 9.953125 -3.4375 L 10.90625 -0.765625 C 10.507812 -0.441406 10.015625 -0.1875 9.421875 0 C 8.828125 0.1875 8.15625 0.28125 7.40625 0.28125 C 5.84375 0.28125 4.65625 -0.144531 3.84375 -1 C 3.03125 -1.851562 2.625 -3.085938 2.625 -4.703125 L 2.625 -11.5625 L 0.4375 -11.5625 L 0.4375 -14.4375 L 2.625 -14.4375 L 2.625 -17.265625 L 6.25 -17.84375 L 6.25 -14.4375 L 10.34375 -14.4375 L 10.34375 -11.5625 L 6.25 -11.5625 L 6.25 -4.96875 C 6.25 -4.257812 6.394531 -3.738281 6.6875 -3.40625 C 6.988281 -3.082031 7.425781 -2.921875 8 -2.921875 C 8.644531 -2.921875 9.207031 -3.09375 9.6875 -3.4375 Z M 9.953125 -3.4375 "/></g></g></g><g fill="#000000" fill-opacity="1"><g transform="translate(79.531354, 79.684864)"><g><path d="M 8.390625 0.28125 C 6.972656 0.28125 5.726562 -0.0078125 4.65625 -0.59375 C 3.59375 -1.175781 2.765625 -2.023438 2.171875 -3.140625 C 1.585938 -4.265625 1.296875 -5.617188 1.296875 -7.203125 C 1.296875 -8.796875 1.585938 -10.15625 2.171875 -11.28125 C 2.765625 -12.40625 3.59375 -13.253906 4.65625 -13.828125 C 5.726562 -14.410156 6.972656 -14.703125 8.390625 -14.703125 C 9.796875 -14.703125 11.035156 -14.410156 12.109375 -13.828125 C 13.179688 -13.253906 14.007812 -12.40625 14.59375 -11.28125 C 15.1875 -10.15625 15.484375 -8.796875 15.484375 -7.203125 C 15.484375 -5.617188 15.1875 -4.265625 14.59375 -3.140625 C 14.007812 -2.023438 13.179688 -1.175781 12.109375 -0.59375 C 11.035156 -0.0078125 9.796875 0.28125 8.390625 0.28125 Z M 8.390625 -2.796875 C 10.628906 -2.796875 11.75 -4.265625 11.75 -7.203125 C 11.75 -8.734375 11.457031 -9.851562 10.875 -10.5625 C 10.300781 -11.269531 9.472656 -11.625 8.390625 -11.625 C 6.148438 -11.625 5.03125 -10.148438 5.03125 -7.203125 C 5.03125 -4.265625 6.148438 -2.796875 8.390625 -2.796875 Z M 8.390625 -2.796875 "/></g></g></g><g fill="#000000" fill-opacity="1"><g transform="translate(96.306413, 79.684864)"><g><path d="M 2.078125 0 L 2.078125 -14.4375 L 5.5625 -14.4375 L 5.5625 -12.5 L 5.828125 -12.4375 C 6.304688 -13.21875 6.859375 -13.789062 7.484375 -14.15625 C 8.117188 -14.519531 8.929688 -14.703125 9.921875 -14.703125 C 11.003906 -14.703125 11.878906 -14.484375 12.546875 -14.046875 C 13.210938 -13.617188 13.695312 -12.992188 14 -12.171875 L 14.28125 -12.171875 C 14.71875 -13.035156 15.285156 -13.671875 15.984375 -14.078125 C 16.691406 -14.492188 17.570312 -14.703125 18.625 -14.703125 C 21.613281 -14.703125 23.109375 -13.035156 23.109375 -9.703125 L 23.109375 0 L 19.484375 0 L 19.484375 -9.25 C 19.484375 -10.09375 19.316406 -10.703125 18.984375 -11.078125 C 18.648438 -11.453125 18.117188 -11.640625 17.390625 -11.640625 C 15.398438 -11.640625 14.40625 -10.3125 14.40625 -7.65625 L 14.40625 0 L 10.78125 0 L 10.78125 -9.25 C 10.78125 -10.09375 10.613281 -10.703125 10.28125 -11.078125 C 9.945312 -11.453125 9.410156 -11.640625 8.671875 -11.640625 C 7.742188 -11.640625 7.015625 -11.328125 6.484375 -10.703125 C 5.960938 -10.085938 5.703125 -9.097656 5.703125 -7.734375 L 5.703125 0 Z M 2.078125 0 "/></g></g></g></svg>