<svg xmlns="http://www.w3.org/2000/svg" xmlns:xlink="http://www.w3.org/1999/xlink" width="188" zoomAndPan="magnify" viewBox="0 0 141 141.000003" height="188" preserveAspectRatio="xMidYMid meet" version="1.0"><defs><g/><clipPath id="72e2fee828"><path d="M 0.496094 0 L 140.503906 0 L 140.503906 140.007812 L 0.496094 140.007812 Z M 0.496094 0 " clip-rule="nonzero"/></clipPath></defs><g clip-path="url(#72e2fee828)"><path fill="#ffffff" d="M 0.496094 0 L 140.503906 0 L 140.503906 140.007812 L 0.496094 140.007812 Z M 0.496094 0 " fill-opacity="1" fill-rule="nonzero"/><path fill="#ffffff" d="M 0.496094 0 L 140.503906 0 L 140.503906 140.007812 L 0.496094 140.007812 Z M 0.496094 0 " fill-opacity="1" fill-rule="nonzero"/></g><g fill="#000000" fill-opacity="1"><g transform="translate(32.313788, 78.940146)"><g><path d="M 9 0.234375 C 7.570312 0.234375 6.300781 -0.09375 5.1875 -0.75 C 4.070312 -1.40625 3.195312 -2.359375 2.5625 -3.609375 C 1.9375 -4.867188 1.625 -6.378906 1.625 -8.140625 C 1.625 -9.910156 1.9375 -11.421875 2.5625 -12.671875 C 3.195312 -13.929688 4.070312 -14.890625 5.1875 -15.546875 C 6.300781 -16.203125 7.570312 -16.53125 9 -16.53125 C 10.53125 -16.53125 11.800781 -16.238281 12.8125 -15.65625 C 13.820312 -15.082031 14.546875 -14.21875 14.984375 -13.0625 L 13.765625 -12.25 L 13.484375 -12.25 C 13.035156 -13.175781 12.453125 -13.832031 11.734375 -14.21875 C 11.023438 -14.613281 10.113281 -14.8125 9 -14.8125 C 7.976562 -14.8125 7.066406 -14.582031 6.265625 -14.125 C 5.472656 -13.664062 4.84375 -12.941406 4.375 -11.953125 C 3.90625 -10.960938 3.671875 -9.691406 3.671875 -8.140625 C 3.671875 -6.597656 3.90625 -5.332031 4.375 -4.34375 C 4.84375 -3.351562 5.472656 -2.628906 6.265625 -2.171875 C 7.066406 -1.722656 7.976562 -1.5 9 -1.5 C 10.1875 -1.5 11.15625 -1.765625 11.90625 -2.296875 C 12.65625 -2.828125 13.210938 -3.6875 13.578125 -4.875 L 13.859375 -4.875 L 15.140625 -4.234375 C 14.753906 -2.796875 14.035156 -1.691406 12.984375 -0.921875 C 11.941406 -0.148438 10.613281 0.234375 9 0.234375 Z M 9 0.234375 "/></g></g></g><g fill="#000000" fill-opacity="1"><g transform="translate(48.299437, 78.940146)"><g><path d="M 7.0625 0.234375 C 5.894531 0.234375 4.878906 -0.0078125 4.015625 -0.5 C 3.160156 -0.988281 2.5 -1.710938 2.03125 -2.671875 C 1.570312 -3.628906 1.34375 -4.785156 1.34375 -6.140625 C 1.34375 -7.503906 1.570312 -8.664062 2.03125 -9.625 C 2.5 -10.582031 3.160156 -11.304688 4.015625 -11.796875 C 4.878906 -12.285156 5.894531 -12.53125 7.0625 -12.53125 C 8.21875 -12.53125 9.222656 -12.285156 10.078125 -11.796875 C 10.941406 -11.304688 11.601562 -10.582031 12.0625 -9.625 C 12.53125 -8.664062 12.765625 -7.503906 12.765625 -6.140625 C 12.765625 -4.785156 12.53125 -3.628906 12.0625 -2.671875 C 11.601562 -1.710938 10.941406 -0.988281 10.078125 -0.5 C 9.222656 -0.0078125 8.21875 0.234375 7.0625 0.234375 Z M 7.0625 -1.390625 C 8.28125 -1.390625 9.210938 -1.773438 9.859375 -2.546875 C 10.515625 -3.328125 10.84375 -4.523438 10.84375 -6.140625 C 10.84375 -7.765625 10.515625 -8.960938 9.859375 -9.734375 C 9.210938 -10.515625 8.28125 -10.90625 7.0625 -10.90625 C 5.832031 -10.90625 4.890625 -10.515625 4.234375 -9.734375 C 3.578125 -8.960938 3.25 -7.765625 3.25 -6.140625 C 3.25 -4.523438 3.578125 -3.328125 4.234375 -2.546875 C 4.890625 -1.773438 5.832031 -1.390625 7.0625 -1.390625 Z M 7.0625 -1.390625 "/></g></g></g><g fill="#000000" fill-opacity="1"><g transform="translate(62.41229, 78.940146)"><g><path d="M 2.140625 0 L 2.140625 -12.296875 L 3.875 -12.296875 L 3.875 -10.359375 L 4.109375 -10.3125 C 4.671875 -11.707031 5.742188 -12.40625 7.328125 -12.40625 C 8.171875 -12.40625 8.800781 -12.253906 9.21875 -11.953125 L 8.75 -10.40625 L 8.53125 -10.359375 C 8.070312 -10.597656 7.566406 -10.71875 7.015625 -10.71875 C 6.035156 -10.71875 5.28125 -10.347656 4.75 -9.609375 C 4.21875 -8.867188 3.953125 -7.675781 3.953125 -6.03125 L 3.953125 0 Z M 2.140625 0 "/></g></g></g><g fill="#000000" fill-opacity="1"><g transform="translate(71.910039, 78.940146)"><g><path d="M 2.140625 0 L 2.140625 -12.296875 L 3.875 -12.296875 L 3.875 -10.359375 L 4.109375 -10.3125 C 4.515625 -11.03125 5.035156 -11.578125 5.671875 -11.953125 C 6.304688 -12.335938 7.078125 -12.53125 7.984375 -12.53125 C 9.460938 -12.53125 10.535156 -12.148438 11.203125 -11.390625 C 11.867188 -10.640625 12.203125 -9.476562 12.203125 -7.90625 L 12.203125 0 L 10.390625 0 L 10.390625 -7.875 C 10.390625 -8.613281 10.289062 -9.207031 10.09375 -9.65625 C 9.90625 -10.101562 9.613281 -10.429688 9.21875 -10.640625 C 8.820312 -10.847656 8.300781 -10.953125 7.65625 -10.953125 C 6.550781 -10.953125 5.65625 -10.582031 4.96875 -9.84375 C 4.289062 -9.113281 3.953125 -7.9375 3.953125 -6.3125 L 3.953125 0 Z M 2.140625 0 "/></g></g></g><g fill="#000000" fill-opacity="1"><g transform="translate(86.067482, 78.940146)"><g><path d="M 11.71875 -5.734375 L 3.265625 -5.734375 C 3.316406 -4.234375 3.675781 -3.132812 4.34375 -2.4375 C 5.007812 -1.738281 5.921875 -1.390625 7.078125 -1.390625 C 7.953125 -1.390625 8.65625 -1.546875 9.1875 -1.859375 C 9.726562 -2.171875 10.148438 -2.660156 10.453125 -3.328125 L 10.6875 -3.328125 L 11.875 -2.625 C 11.519531 -1.738281 10.945312 -1.039062 10.15625 -0.53125 C 9.375 -0.0195312 8.347656 0.234375 7.078125 0.234375 C 5.890625 0.234375 4.867188 0 4.015625 -0.46875 C 3.160156 -0.9375 2.5 -1.644531 2.03125 -2.59375 C 1.570312 -3.550781 1.34375 -4.734375 1.34375 -6.140625 C 1.34375 -7.535156 1.585938 -8.710938 2.078125 -9.671875 C 2.566406 -10.628906 3.234375 -11.34375 4.078125 -11.8125 C 4.921875 -12.289062 5.882812 -12.53125 6.96875 -12.53125 C 8.539062 -12.53125 9.769531 -12.082031 10.65625 -11.1875 C 11.539062 -10.300781 11.988281 -8.988281 12 -7.25 C 12 -6.5625 11.984375 -6.097656 11.953125 -5.859375 Z M 10.203125 -7.25 C 10.171875 -8.550781 9.878906 -9.5 9.328125 -10.09375 C 8.773438 -10.6875 7.988281 -10.984375 6.96875 -10.984375 C 5.882812 -10.984375 5.035156 -10.6875 4.421875 -10.09375 C 3.816406 -9.5 3.445312 -8.550781 3.3125 -7.25 Z M 10.203125 -7.25 "/></g></g></g><g fill="#000000" fill-opacity="1"><g transform="translate(99.177052, 78.940146)"><g><path d="M 2.140625 0 L 2.140625 -12.296875 L 3.875 -12.296875 L 3.875 -10.359375 L 4.109375 -10.3125 C 4.671875 -11.707031 5.742188 -12.40625 7.328125 -12.40625 C 8.171875 -12.40625 8.800781 -12.253906 9.21875 -11.953125 L 8.75 -10.40625 L 8.53125 -10.359375 C 8.070312 -10.597656 7.566406 -10.71875 7.015625 -10.71875 C 6.035156 -10.71875 5.28125 -10.347656 4.75 -9.609375 C 4.21875 -8.867188 3.953125 -7.675781 3.953125 -6.03125 L 3.953125 0 Z M 2.140625 0 "/></g></g></g></svg>