<svg xmlns="http://www.w3.org/2000/svg" xmlns:xlink="http://www.w3.org/1999/xlink" width="188" zoomAndPan="magnify" viewBox="0 0 141 141.000003" height="188" preserveAspectRatio="xMidYMid meet" version="1.0"><defs><g/><clipPath id="3f56d70d28"><path d="M 0.496094 0 L 140.503906 0 L 140.503906 140.007812 L 0.496094 140.007812 Z M 0.496094 0 " clip-rule="nonzero"/></clipPath></defs><g clip-path="url(#3f56d70d28)"><path fill="#ffffff" d="M 0.496094 0 L 140.503906 0 L 140.503906 140.007812 L 0.496094 140.007812 Z M 0.496094 0 " fill-opacity="1" fill-rule="nonzero"/><path fill="#ffffff" d="M 0.496094 0 L 140.503906 0 L 140.503906 140.007812 L 0.496094 140.007812 Z M 0.496094 0 " fill-opacity="1" fill-rule="nonzero"/></g><g fill="#000000" fill-opacity="1"><g transform="translate(25.681143, 79.684864)"><g><path d="M 10.578125 0.28125 C 8.898438 0.28125 7.40625 -0.101562 6.09375 -0.875 C 4.789062 -1.644531 3.765625 -2.769531 3.015625 -4.25 C 2.273438 -5.726562 1.90625 -7.5 1.90625 -9.5625 C 1.90625 -11.632812 2.273438 -13.40625 3.015625 -14.875 C 3.765625 -16.351562 4.789062 -17.476562 6.09375 -18.25 C 7.40625 -19.019531 8.898438 -19.40625 10.578125 -19.40625 C 12.359375 -19.40625 13.84375 -19.066406 15.03125 -18.390625 C 16.21875 -17.710938 17.070312 -16.691406 17.59375 -15.328125 L 16.15625 -14.375 L 15.828125 -14.375 C 15.304688 -15.46875 14.625 -16.242188 13.78125 -16.703125 C 12.945312 -17.160156 11.878906 -17.390625 10.578125 -17.390625 C 9.367188 -17.390625 8.296875 -17.117188 7.359375 -16.578125 C 6.429688 -16.046875 5.691406 -15.195312 5.140625 -14.03125 C 4.585938 -12.863281 4.3125 -11.375 4.3125 -9.5625 C 4.3125 -7.75 4.585938 -6.257812 5.140625 -5.09375 C 5.691406 -3.9375 6.429688 -3.085938 7.359375 -2.546875 C 8.296875 -2.015625 9.367188 -1.75 10.578125 -1.75 C 11.960938 -1.75 13.09375 -2.0625 13.96875 -2.6875 C 14.851562 -3.3125 15.507812 -4.320312 15.9375 -5.71875 L 16.265625 -5.71875 L 17.765625 -4.96875 C 17.316406 -3.28125 16.476562 -1.984375 15.25 -1.078125 C 14.019531 -0.171875 12.460938 0.28125 10.578125 0.28125 Z M 10.578125 0.28125 "/></g></g></g><g fill="#000000" fill-opacity="1"><g transform="translate(44.445133, 79.684864)"><g><path d="M 8.28125 0.28125 C 6.914062 0.28125 5.726562 -0.00390625 4.71875 -0.578125 C 3.71875 -1.160156 2.941406 -2.007812 2.390625 -3.125 C 1.847656 -4.25 1.578125 -5.609375 1.578125 -7.203125 C 1.578125 -8.804688 1.847656 -10.171875 2.390625 -11.296875 C 2.941406 -12.421875 3.71875 -13.269531 4.71875 -13.84375 C 5.726562 -14.414062 6.914062 -14.703125 8.28125 -14.703125 C 9.644531 -14.703125 10.828125 -14.414062 11.828125 -13.84375 C 12.835938 -13.269531 13.613281 -12.421875 14.15625 -11.296875 C 14.707031 -10.171875 14.984375 -8.804688 14.984375 -7.203125 C 14.984375 -5.609375 14.707031 -4.25 14.15625 -3.125 C 13.613281 -2.007812 12.835938 -1.160156 11.828125 -0.578125 C 10.828125 -0.00390625 9.644531 0.28125 8.28125 0.28125 Z M 8.28125 -1.640625 C 9.71875 -1.640625 10.816406 -2.09375 11.578125 -3 C 12.347656 -3.90625 12.734375 -5.304688 12.734375 -7.203125 C 12.734375 -9.117188 12.347656 -10.53125 11.578125 -11.4375 C 10.816406 -12.34375 9.71875 -12.796875 8.28125 -12.796875 C 6.84375 -12.796875 5.738281 -12.335938 4.96875 -11.421875 C 4.207031 -10.515625 3.828125 -9.109375 3.828125 -7.203125 C 3.828125 -5.304688 4.207031 -3.90625 4.96875 -3 C 5.738281 -2.09375 6.84375 -1.640625 8.28125 -1.640625 Z M 8.28125 -1.640625 "/></g></g></g><g fill="#000000" fill-opacity="1"><g transform="translate(61.010831, 79.684864)"><g><path d="M 2.515625 0 L 2.515625 -14.4375 L 4.546875 -14.4375 L 4.546875 -12.171875 L 4.8125 -12.109375 C 5.488281 -13.742188 6.753906 -14.5625 8.609375 -14.5625 C 9.597656 -14.5625 10.335938 -14.382812 10.828125 -14.03125 L 10.265625 -12.21875 L 10.015625 -12.171875 C 9.472656 -12.441406 8.878906 -12.578125 8.234375 -12.578125 C 7.078125 -12.578125 6.1875 -12.144531 5.5625 -11.28125 C 4.945312 -10.414062 4.640625 -9.015625 4.640625 -7.078125 L 4.640625 0 Z M 2.515625 0 "/></g></g></g><g fill="#000000" fill-opacity="1"><g transform="translate(72.15931, 79.684864)"><g><path d="M 2.515625 0 L 2.515625 -14.4375 L 4.546875 -14.4375 L 4.546875 -12.171875 L 4.8125 -12.109375 C 5.289062 -12.953125 5.898438 -13.59375 6.640625 -14.03125 C 7.390625 -14.476562 8.300781 -14.703125 9.375 -14.703125 C 11.113281 -14.703125 12.375 -14.257812 13.15625 -13.375 C 13.9375 -12.488281 14.328125 -11.128906 14.328125 -9.296875 L 14.328125 0 L 12.1875 0 L 12.1875 -9.234375 C 12.1875 -10.109375 12.078125 -10.804688 11.859375 -11.328125 C 11.640625 -11.859375 11.296875 -12.242188 10.828125 -12.484375 C 10.359375 -12.722656 9.742188 -12.84375 8.984375 -12.84375 C 7.691406 -12.84375 6.644531 -12.410156 5.84375 -11.546875 C 5.039062 -10.691406 4.640625 -9.3125 4.640625 -7.40625 L 4.640625 0 Z M 2.515625 0 "/></g></g></g><g fill="#000000" fill-opacity="1"><g transform="translate(88.777348, 79.684864)"><g><path d="M 13.75 -6.71875 L 3.828125 -6.71875 C 3.890625 -4.96875 4.3125 -3.679688 5.09375 -2.859375 C 5.875 -2.046875 6.945312 -1.640625 8.3125 -1.640625 C 9.34375 -1.640625 10.171875 -1.820312 10.796875 -2.1875 C 11.421875 -2.550781 11.910156 -3.125 12.265625 -3.90625 L 12.546875 -3.90625 L 13.9375 -3.09375 C 13.519531 -2.039062 12.847656 -1.210938 11.921875 -0.609375 C 11.003906 -0.015625 9.800781 0.28125 8.3125 0.28125 C 6.914062 0.28125 5.710938 0.00390625 4.703125 -0.546875 C 3.703125 -1.097656 2.929688 -1.929688 2.390625 -3.046875 C 1.847656 -4.160156 1.578125 -5.546875 1.578125 -7.203125 C 1.578125 -8.847656 1.863281 -10.234375 2.4375 -11.359375 C 3.007812 -12.484375 3.789062 -13.320312 4.78125 -13.875 C 5.769531 -14.425781 6.898438 -14.703125 8.171875 -14.703125 C 10.023438 -14.703125 11.46875 -14.179688 12.5 -13.140625 C 13.539062 -12.097656 14.066406 -10.550781 14.078125 -8.5 C 14.078125 -7.695312 14.0625 -7.15625 14.03125 -6.875 Z M 11.96875 -8.5 C 11.9375 -10.039062 11.597656 -11.160156 10.953125 -11.859375 C 10.304688 -12.554688 9.378906 -12.90625 8.171875 -12.90625 C 6.910156 -12.90625 5.921875 -12.550781 5.203125 -11.84375 C 4.484375 -11.144531 4.046875 -10.03125 3.890625 -8.5 Z M 11.96875 -8.5 "/></g></g></g><g fill="#000000" fill-opacity="1"><g transform="translate(104.16539, 79.684864)"><g><path d="M 2.515625 0 L 2.515625 -14.4375 L 4.546875 -14.4375 L 4.546875 -12.171875 L 4.8125 -12.109375 C 5.488281 -13.742188 6.753906 -14.5625 8.609375 -14.5625 C 9.597656 -14.5625 10.335938 -14.382812 10.828125 -14.03125 L 10.265625 -12.21875 L 10.015625 -12.171875 C 9.472656 -12.441406 8.878906 -12.578125 8.234375 -12.578125 C 7.078125 -12.578125 6.1875 -12.144531 5.5625 -11.28125 C 4.945312 -10.414062 4.640625 -9.015625 4.640625 -7.078125 L 4.640625 0 Z M 2.515625 0 "/></g></g></g></svg>