<svg xmlns="http://www.w3.org/2000/svg" xmlns:xlink="http://www.w3.org/1999/xlink" width="188" zoomAndPan="magnify" viewBox="0 0 141 141.000003" height="188" preserveAspectRatio="xMidYMid meet" version="1.0"><defs><g/><clipPath id="2b0ff5d8ee"><path d="M 0.496094 0 L 140.503906 0 L 140.503906 140.007812 L 0.496094 140.007812 Z M 0.496094 0 " clip-rule="nonzero"/></clipPath></defs><g clip-path="url(#2b0ff5d8ee)"><path fill="#ffffff" d="M 0.496094 0 L 140.503906 0 L 140.503906 140.007812 L 0.496094 140.007812 Z M 0.496094 0 " fill-opacity="1" fill-rule="nonzero"/><path fill="#ffffff" d="M 0.496094 0 L 140.503906 0 L 140.503906 140.007812 L 0.496094 140.007812 Z M 0.496094 0 " fill-opacity="1" fill-rule="nonzero"/></g><g fill="#000000" fill-opacity="1"><g transform="translate(27.686451, 78.940146)"><g><path d="M 9 0.234375 C 7.570312 0.234375 6.300781 -0.09375 5.1875 -0.75 C 4.070312 -1.40625 3.195312 -2.359375 2.5625 -3.609375 C 1.9375 -4.867188 1.625 -6.378906 1.625 -8.140625 C 1.625 -9.910156 1.9375 -11.421875 2.5625 -12.671875 C 3.195312 -13.929688 4.070312 -14.890625 5.1875 -15.546875 C 6.300781 -16.203125 7.570312 -16.53125 9 -16.53125 C 10.53125 -16.53125 11.800781 -16.238281 12.8125 -15.65625 C 13.820312 -15.082031 14.546875 -14.21875 14.984375 -13.0625 L 13.765625 -12.25 L 13.484375 -12.25 C 13.035156 -13.175781 12.453125 -13.832031 11.734375 -14.21875 C 11.023438 -14.613281 10.113281 -14.8125 9 -14.8125 C 7.976562 -14.8125 7.066406 -14.582031 6.265625 -14.125 C 5.472656 -13.664062 4.84375 -12.941406 4.375 -11.953125 C 3.90625 -10.960938 3.671875 -9.691406 3.671875 -8.140625 C 3.671875 -6.597656 3.90625 -5.332031 4.375 -4.34375 C 4.84375 -3.351562 5.472656 -2.628906 6.265625 -2.171875 C 7.066406 -1.722656 7.976562 -1.5 9 -1.5 C 10.1875 -1.5 11.15625 -1.765625 11.90625 -2.296875 C 12.65625 -2.828125 13.210938 -3.6875 13.578125 -4.875 L 13.859375 -4.875 L 15.140625 -4.234375 C 14.753906 -2.796875 14.035156 -1.691406 12.984375 -0.921875 C 11.941406 -0.148438 10.613281 0.234375 9 0.234375 Z M 9 0.234375 "/></g></g></g><g fill="#000000" fill-opacity="1"><g transform="translate(43.6721, 78.940146)"><g><path d="M 6.078125 0.234375 C 4.679688 0.234375 3.644531 -0.128906 2.96875 -0.859375 C 2.289062 -1.597656 1.953125 -2.679688 1.953125 -4.109375 L 1.953125 -12.296875 L 3.765625 -12.296875 L 3.765625 -4.140625 C 3.765625 -2.273438 4.640625 -1.34375 6.390625 -1.34375 C 7.503906 -1.34375 8.382812 -1.707031 9.03125 -2.4375 C 9.6875 -3.164062 10.015625 -4.347656 10.015625 -5.984375 L 10.015625 -12.296875 L 11.828125 -12.296875 L 11.828125 0 L 10.109375 0 L 10.109375 -1.921875 L 9.875 -1.984375 C 9.445312 -1.234375 8.9375 -0.675781 8.34375 -0.3125 C 7.757812 0.0507812 7.003906 0.234375 6.078125 0.234375 Z M 6.078125 0.234375 "/></g></g></g><g fill="#000000" fill-opacity="1"><g transform="translate(57.640034, 78.940146)"><g><path d="M 5.609375 0.234375 C 4.835938 0.234375 4.117188 0.132812 3.453125 -0.0625 C 2.796875 -0.269531 2.238281 -0.550781 1.78125 -0.90625 C 1.332031 -1.269531 1.019531 -1.675781 0.84375 -2.125 L 1.90625 -3.234375 L 2.140625 -3.234375 C 2.535156 -2.617188 3.015625 -2.15625 3.578125 -1.84375 C 4.148438 -1.539062 4.828125 -1.390625 5.609375 -1.390625 C 6.515625 -1.390625 7.203125 -1.566406 7.671875 -1.921875 C 8.140625 -2.273438 8.375 -2.769531 8.375 -3.40625 C 8.375 -3.882812 8.234375 -4.28125 7.953125 -4.59375 C 7.671875 -4.914062 7.207031 -5.15625 6.5625 -5.3125 L 4.484375 -5.8125 C 3.378906 -6.082031 2.570312 -6.503906 2.0625 -7.078125 C 1.550781 -7.660156 1.296875 -8.378906 1.296875 -9.234375 C 1.296875 -9.910156 1.46875 -10.492188 1.8125 -10.984375 C 2.15625 -11.472656 2.648438 -11.851562 3.296875 -12.125 C 3.941406 -12.394531 4.703125 -12.53125 5.578125 -12.53125 C 6.710938 -12.53125 7.601562 -12.367188 8.25 -12.046875 C 8.90625 -11.734375 9.414062 -11.296875 9.78125 -10.734375 L 8.75 -9.734375 L 8.53125 -9.734375 C 8.132812 -10.179688 7.703125 -10.503906 7.234375 -10.703125 C 6.773438 -10.910156 6.222656 -11.015625 5.578125 -11.015625 C 4.773438 -11.015625 4.15625 -10.867188 3.71875 -10.578125 C 3.289062 -10.285156 3.078125 -9.863281 3.078125 -9.3125 C 3.078125 -8.820312 3.226562 -8.421875 3.53125 -8.109375 C 3.832031 -7.804688 4.363281 -7.5625 5.125 -7.375 L 7.171875 -6.890625 C 8.234375 -6.640625 9.003906 -6.21875 9.484375 -5.625 C 9.960938 -5.039062 10.203125 -4.304688 10.203125 -3.421875 C 10.203125 -2.703125 10.03125 -2.066406 9.6875 -1.515625 C 9.34375 -0.960938 8.820312 -0.53125 8.125 -0.21875 C 7.4375 0.0820312 6.597656 0.234375 5.609375 0.234375 Z M 5.609375 0.234375 "/></g></g></g><g fill="#000000" fill-opacity="1"><g transform="translate(69.010579, 78.940146)"><g><path d="M 8.3125 -1.953125 L 8.890625 -0.640625 C 8.597656 -0.359375 8.21875 -0.144531 7.75 0 C 7.28125 0.15625 6.769531 0.234375 6.21875 0.234375 C 3.875 0.234375 2.703125 -0.953125 2.703125 -3.328125 L 2.703125 -10.8125 L 0.5625 -10.8125 L 0.5625 -12.3125 L 2.703125 -12.3125 L 2.703125 -14.90625 L 4.515625 -15.203125 L 4.515625 -12.3125 L 8.46875 -12.3125 L 8.46875 -10.8125 L 4.515625 -10.8125 L 4.515625 -3.515625 C 4.515625 -2.097656 5.128906 -1.390625 6.359375 -1.390625 C 7.023438 -1.390625 7.597656 -1.578125 8.078125 -1.953125 Z M 8.3125 -1.953125 "/></g></g></g><g fill="#000000" fill-opacity="1"><g transform="translate(78.229615, 78.940146)"><g><path d="M 7.0625 0.234375 C 5.894531 0.234375 4.878906 -0.0078125 4.015625 -0.5 C 3.160156 -0.988281 2.5 -1.710938 2.03125 -2.671875 C 1.570312 -3.628906 1.34375 -4.785156 1.34375 -6.140625 C 1.34375 -7.503906 1.570312 -8.664062 2.03125 -9.625 C 2.5 -10.582031 3.160156 -11.304688 4.015625 -11.796875 C 4.878906 -12.285156 5.894531 -12.53125 7.0625 -12.53125 C 8.21875 -12.53125 9.222656 -12.285156 10.078125 -11.796875 C 10.941406 -11.304688 11.601562 -10.582031 12.0625 -9.625 C 12.53125 -8.664062 12.765625 -7.503906 12.765625 -6.140625 C 12.765625 -4.785156 12.53125 -3.628906 12.0625 -2.671875 C 11.601562 -1.710938 10.941406 -0.988281 10.078125 -0.5 C 9.222656 -0.0078125 8.21875 0.234375 7.0625 0.234375 Z M 7.0625 -1.390625 C 8.28125 -1.390625 9.210938 -1.773438 9.859375 -2.546875 C 10.515625 -3.328125 10.84375 -4.523438 10.84375 -6.140625 C 10.84375 -7.765625 10.515625 -8.960938 9.859375 -9.734375 C 9.210938 -10.515625 8.28125 -10.90625 7.0625 -10.90625 C 5.832031 -10.90625 4.890625 -10.515625 4.234375 -9.734375 C 3.578125 -8.960938 3.25 -7.765625 3.25 -6.140625 C 3.25 -4.523438 3.578125 -3.328125 4.234375 -2.546875 C 4.890625 -1.773438 5.832031 -1.390625 7.0625 -1.390625 Z M 7.0625 -1.390625 "/></g></g></g><g fill="#000000" fill-opacity="1"><g transform="translate(92.342468, 78.940146)"><g><path d="M 2.140625 0 L 2.140625 -12.296875 L 3.875 -12.296875 L 3.875 -10.484375 L 4.109375 -10.4375 C 4.515625 -11.125 5.015625 -11.644531 5.609375 -12 C 6.203125 -12.351562 6.910156 -12.53125 7.734375 -12.53125 C 8.679688 -12.53125 9.414062 -12.347656 9.9375 -11.984375 C 10.457031 -11.628906 10.863281 -11.050781 11.15625 -10.25 L 11.390625 -10.25 C 11.816406 -11 12.335938 -11.566406 12.953125 -11.953125 C 13.578125 -12.335938 14.34375 -12.53125 15.25 -12.53125 C 16.507812 -12.53125 17.445312 -12.1875 18.0625 -11.5 C 18.6875 -10.820312 19 -9.78125 19 -8.375 L 19 0 L 17.1875 0 L 17.1875 -8.34375 C 17.1875 -9.226562 17 -9.882812 16.625 -10.3125 C 16.25 -10.738281 15.644531 -10.953125 14.8125 -10.953125 C 13.832031 -10.953125 13.03125 -10.59375 12.40625 -9.875 C 11.789062 -9.164062 11.484375 -7.992188 11.484375 -6.359375 L 11.484375 0 L 9.65625 0 L 9.65625 -8.34375 C 9.65625 -9.226562 9.46875 -9.882812 9.09375 -10.3125 C 8.71875 -10.738281 8.117188 -10.953125 7.296875 -10.953125 C 6.304688 -10.953125 5.5 -10.601562 4.875 -9.90625 C 4.257812 -9.21875 3.953125 -8.097656 3.953125 -6.546875 L 3.953125 0 Z M 2.140625 0 "/></g></g></g></svg>