<svg xmlns="http://www.w3.org/2000/svg" xmlns:xlink="http://www.w3.org/1999/xlink" width="188" zoomAndPan="magnify" viewBox="0 0 141 141.000003" height="188" preserveAspectRatio="xMidYMid meet" version="1.0"><defs><g/><clipPath id="dd5b7a746e"><path d="M 0.496094 0 L 140.503906 0 L 140.503906 140.007812 L 0.496094 140.007812 Z M 0.496094 0 " clip-rule="nonzero"/></clipPath></defs><g clip-path="url(#dd5b7a746e)"><path fill="#ffffff" d="M 0.496094 0 L 140.503906 0 L 140.503906 140.007812 L 0.496094 140.007812 Z M 0.496094 0 " fill-opacity="1" fill-rule="nonzero"/><path fill="#ffffff" d="M 0.496094 0 L 140.503906 0 L 140.503906 140.007812 L 0.496094 140.007812 Z M 0.496094 0 " fill-opacity="1" fill-rule="nonzero"/></g><g fill="#000000" fill-opacity="1"><g transform="translate(20.239268, 79.684864)"><g><path d="M 10.578125 0.28125 C 8.898438 0.28125 7.40625 -0.101562 6.09375 -0.875 C 4.789062 -1.644531 3.765625 -2.769531 3.015625 -4.25 C 2.273438 -5.726562 1.90625 -7.5 1.90625 -9.5625 C 1.90625 -11.632812 2.273438 -13.40625 3.015625 -14.875 C 3.765625 -16.351562 4.789062 -17.476562 6.09375 -18.25 C 7.40625 -19.019531 8.898438 -19.40625 10.578125 -19.40625 C 12.359375 -19.40625 13.84375 -19.066406 15.03125 -18.390625 C 16.21875 -17.710938 17.070312 -16.691406 17.59375 -15.328125 L 16.15625 -14.375 L 15.828125 -14.375 C 15.304688 -15.46875 14.625 -16.242188 13.78125 -16.703125 C 12.945312 -17.160156 11.878906 -17.390625 10.578125 -17.390625 C 9.367188 -17.390625 8.296875 -17.117188 7.359375 -16.578125 C 6.429688 -16.046875 5.691406 -15.195312 5.140625 -14.03125 C 4.585938 -12.863281 4.3125 -11.375 4.3125 -9.5625 C 4.3125 -7.75 4.585938 -6.257812 5.140625 -5.09375 C 5.691406 -3.9375 6.429688 -3.085938 7.359375 -2.546875 C 8.296875 -2.015625 9.367188 -1.75 10.578125 -1.75 C 11.960938 -1.75 13.09375 -2.0625 13.96875 -2.6875 C 14.851562 -3.3125 15.507812 -4.320312 15.9375 -5.71875 L 16.265625 -5.71875 L 17.765625 -4.96875 C 17.316406 -3.28125 16.476562 -1.984375 15.25 -1.078125 C 14.019531 -0.171875 12.460938 0.28125 10.578125 0.28125 Z M 10.578125 0.28125 "/></g></g></g><g fill="#000000" fill-opacity="1"><g transform="translate(39.003258, 79.684864)"><g><path d="M 7.125 0.28125 C 5.5 0.28125 4.285156 -0.148438 3.484375 -1.015625 C 2.691406 -1.878906 2.296875 -3.144531 2.296875 -4.8125 L 2.296875 -14.4375 L 4.421875 -14.4375 L 4.421875 -4.875 C 4.421875 -2.675781 5.453125 -1.578125 7.515625 -1.578125 C 8.816406 -1.578125 9.847656 -2.003906 10.609375 -2.859375 C 11.367188 -3.710938 11.75 -5.101562 11.75 -7.03125 L 11.75 -14.4375 L 13.875 -14.4375 L 13.875 0 L 11.875 0 L 11.875 -2.265625 L 11.59375 -2.328125 C 11.09375 -1.441406 10.492188 -0.785156 9.796875 -0.359375 C 9.109375 0.0664062 8.21875 0.28125 7.125 0.28125 Z M 7.125 0.28125 "/></g></g></g><g fill="#000000" fill-opacity="1"><g transform="translate(55.398856, 79.684864)"><g><path d="M 6.578125 0.28125 C 5.671875 0.28125 4.832031 0.160156 4.0625 -0.078125 C 3.289062 -0.316406 2.640625 -0.644531 2.109375 -1.0625 C 1.578125 -1.488281 1.203125 -1.960938 0.984375 -2.484375 L 2.234375 -3.796875 L 2.515625 -3.796875 C 2.984375 -3.078125 3.546875 -2.535156 4.203125 -2.171875 C 4.867188 -1.816406 5.660156 -1.640625 6.578125 -1.640625 C 7.640625 -1.640625 8.445312 -1.84375 9 -2.25 C 9.5625 -2.664062 9.84375 -3.242188 9.84375 -3.984375 C 9.84375 -4.554688 9.671875 -5.023438 9.328125 -5.390625 C 8.992188 -5.765625 8.453125 -6.046875 7.703125 -6.234375 L 5.265625 -6.828125 C 3.972656 -7.140625 3.023438 -7.632812 2.421875 -8.3125 C 1.828125 -9 1.53125 -9.84375 1.53125 -10.84375 C 1.53125 -11.632812 1.726562 -12.316406 2.125 -12.890625 C 2.53125 -13.472656 3.109375 -13.921875 3.859375 -14.234375 C 4.617188 -14.546875 5.519531 -14.703125 6.5625 -14.703125 C 7.882812 -14.703125 8.925781 -14.515625 9.6875 -14.140625 C 10.445312 -13.773438 11.039062 -13.257812 11.46875 -12.59375 L 10.265625 -11.421875 L 10.015625 -11.421875 C 9.546875 -11.953125 9.039062 -12.332031 8.5 -12.5625 C 7.957031 -12.800781 7.3125 -12.921875 6.5625 -12.921875 C 5.601562 -12.921875 4.867188 -12.75 4.359375 -12.40625 C 3.859375 -12.070312 3.609375 -11.582031 3.609375 -10.9375 C 3.609375 -10.351562 3.785156 -9.878906 4.140625 -9.515625 C 4.503906 -9.160156 5.128906 -8.875 6.015625 -8.65625 L 8.40625 -8.09375 C 9.664062 -7.789062 10.570312 -7.296875 11.125 -6.609375 C 11.6875 -5.921875 11.96875 -5.054688 11.96875 -4.015625 C 11.96875 -3.171875 11.765625 -2.425781 11.359375 -1.78125 C 10.960938 -1.132812 10.359375 -0.628906 9.546875 -0.265625 C 8.734375 0.0976562 7.742188 0.28125 6.578125 0.28125 Z M 6.578125 0.28125 "/></g></g></g><g fill="#000000" fill-opacity="1"><g transform="translate(68.745628, 79.684864)"><g><path d="M 9.765625 -2.296875 L 10.4375 -0.765625 C 10.101562 -0.421875 9.65625 -0.160156 9.09375 0.015625 C 8.539062 0.191406 7.941406 0.28125 7.296875 0.28125 C 4.546875 0.28125 3.171875 -1.113281 3.171875 -3.90625 L 3.171875 -12.6875 L 0.65625 -12.6875 L 0.65625 -14.4375 L 3.171875 -14.4375 L 3.171875 -17.5 L 5.296875 -17.84375 L 5.296875 -14.4375 L 9.9375 -14.4375 L 9.9375 -12.6875 L 5.296875 -12.6875 L 5.296875 -4.125 C 5.296875 -2.46875 6.015625 -1.640625 7.453125 -1.640625 C 8.242188 -1.640625 8.921875 -1.859375 9.484375 -2.296875 Z M 9.765625 -2.296875 "/></g></g></g><g fill="#000000" fill-opacity="1"><g transform="translate(79.566952, 79.684864)"><g><path d="M 8.28125 0.28125 C 6.914062 0.28125 5.726562 -0.00390625 4.71875 -0.578125 C 3.71875 -1.160156 2.941406 -2.007812 2.390625 -3.125 C 1.847656 -4.25 1.578125 -5.609375 1.578125 -7.203125 C 1.578125 -8.804688 1.847656 -10.171875 2.390625 -11.296875 C 2.941406 -12.421875 3.71875 -13.269531 4.71875 -13.84375 C 5.726562 -14.414062 6.914062 -14.703125 8.28125 -14.703125 C 9.644531 -14.703125 10.828125 -14.414062 11.828125 -13.84375 C 12.835938 -13.269531 13.613281 -12.421875 14.15625 -11.296875 C 14.707031 -10.171875 14.984375 -8.804688 14.984375 -7.203125 C 14.984375 -5.609375 14.707031 -4.25 14.15625 -3.125 C 13.613281 -2.007812 12.835938 -1.160156 11.828125 -0.578125 C 10.828125 -0.00390625 9.644531 0.28125 8.28125 0.28125 Z M 8.28125 -1.640625 C 9.71875 -1.640625 10.816406 -2.09375 11.578125 -3 C 12.347656 -3.90625 12.734375 -5.304688 12.734375 -7.203125 C 12.734375 -9.117188 12.347656 -10.53125 11.578125 -11.4375 C 10.816406 -12.34375 9.71875 -12.796875 8.28125 -12.796875 C 6.84375 -12.796875 5.738281 -12.335938 4.96875 -11.421875 C 4.207031 -10.515625 3.828125 -9.109375 3.828125 -7.203125 C 3.828125 -5.304688 4.207031 -3.90625 4.96875 -3 C 5.738281 -2.09375 6.84375 -1.640625 8.28125 -1.640625 Z M 8.28125 -1.640625 "/></g></g></g><g fill="#000000" fill-opacity="1"><g transform="translate(96.13265, 79.684864)"><g><path d="M 2.515625 0 L 2.515625 -14.4375 L 4.546875 -14.4375 L 4.546875 -12.296875 L 4.8125 -12.25 C 5.300781 -13.0625 5.890625 -13.671875 6.578125 -14.078125 C 7.273438 -14.492188 8.109375 -14.703125 9.078125 -14.703125 C 10.191406 -14.703125 11.054688 -14.488281 11.671875 -14.0625 C 12.285156 -13.644531 12.757812 -12.96875 13.09375 -12.03125 L 13.375 -12.03125 C 13.875 -12.90625 14.484375 -13.566406 15.203125 -14.015625 C 15.929688 -14.472656 16.832031 -14.703125 17.90625 -14.703125 C 19.382812 -14.703125 20.488281 -14.300781 21.21875 -13.5 C 21.945312 -12.695312 22.3125 -11.476562 22.3125 -9.84375 L 22.3125 0 L 20.171875 0 L 20.171875 -9.78125 C 20.171875 -10.832031 19.953125 -11.601562 19.515625 -12.09375 C 19.078125 -12.59375 18.367188 -12.84375 17.390625 -12.84375 C 16.234375 -12.84375 15.289062 -12.425781 14.5625 -11.59375 C 13.84375 -10.757812 13.484375 -9.378906 13.484375 -7.453125 L 13.484375 0 L 11.34375 0 L 11.34375 -9.78125 C 11.34375 -10.832031 11.117188 -11.601562 10.671875 -12.09375 C 10.234375 -12.59375 9.53125 -12.84375 8.5625 -12.84375 C 7.40625 -12.84375 6.460938 -12.4375 5.734375 -11.625 C 5.003906 -10.820312 4.640625 -9.507812 4.640625 -7.6875 L 4.640625 0 Z M 2.515625 0 "/></g></g></g></svg>